<?xml version="1.0" encoding="utf-8"?>
<!-- Generator: Adobe Illustrator 21.0.1, SVG Export Plug-In . SVG Version: 6.00 Build 0)  -->
<svg version="1.1" id="Layer_1" xmlns="http://www.w3.org/2000/svg" xmlns:xlink="http://www.w3.org/1999/xlink" x="0px" y="0px"
	 viewBox="0 0 307 92.1" style="enable-background:new 0 0 307 92.1;" xml:space="preserve">
<style type="text/css">
	.st0{enable-background:new    ;}
	.st1{fill:#FFFFFF;}
	.st2{fill:#525252;}
	.st3{fill:#3BBFBA;}
	.st4{fill:#FF1F93;}
	.st5{fill:#1793FF;}
	.st6{fill:#FFA54F;}
</style>
<g class="st0">
	<path class="st1" d="M105.3,25.6h17.1c3.4,0,6.1,1,8.2,2.9c2.1,1.9,3.1,4.6,3.1,8.1c0,3-0.9,5.6-2.8,7.8c-1.9,2.2-4.7,3.3-8.5,3.3
		h-11.9v16.2h-5.2V25.6z M125.4,30.9c-1.1-0.5-2.7-0.8-4.7-0.8h-10.2v13.3h10.2c2.3,0,4.2-0.5,5.6-1.5s2.2-2.7,2.2-5.2
		C128.5,33.8,127.5,31.9,125.4,30.9z"/>
	<path class="st1" d="M157,36.8c1.8,0.9,3.3,2.1,4.2,3.6c0.9,1.4,1.6,3,1.9,4.9c0.3,1.3,0.4,3.3,0.4,6.1h-20.3
		c0.1,2.8,0.7,5.1,2,6.8s3.2,2.6,5.8,2.6c2.4,0,4.4-0.8,5.8-2.4c0.8-0.9,1.4-2,1.7-3.3h4.6c-0.1,1-0.5,2.2-1.2,3.4
		c-0.7,1.3-1.5,2.3-2.3,3.1c-1.4,1.4-3.2,2.3-5.2,2.8c-1.1,0.3-2.4,0.4-3.8,0.4c-3.5,0-6.4-1.3-8.8-3.8s-3.6-6.1-3.6-10.6
		c0-4.5,1.2-8.1,3.6-10.9c2.4-2.8,5.6-4.2,9.5-4.2C153.3,35.4,155.2,35.8,157,36.8z M158.7,47.7c-0.2-2-0.6-3.7-1.3-4.9
		c-1.3-2.3-3.4-3.4-6.4-3.4c-2.1,0-3.9,0.8-5.4,2.3c-1.4,1.6-2.2,3.5-2.3,5.9H158.7z"/>
	<path class="st1" d="M184.9,37.1c0.9,0.6,1.8,1.5,2.7,2.7v-3.5h4.3v25.4c0,3.5-0.5,6.3-1.6,8.4c-1.9,3.8-5.6,5.7-11,5.7
		c-3,0-5.5-0.7-7.6-2s-3.2-3.5-3.4-6.3h4.8c0.2,1.2,0.7,2.2,1.3,2.9c1.1,1,2.7,1.6,5,1.6c3.6,0,5.9-1.3,7-3.8c0.7-1.5,1-4.2,0.9-8
		c-0.9,1.4-2.1,2.5-3.4,3.2s-3.1,1-5.2,1c-3,0-5.6-1.1-7.9-3.2s-3.4-5.7-3.4-10.6c0-4.7,1.1-8.3,3.4-10.9s5-3.9,8.2-3.9
		C181.4,35.5,183.3,36,184.9,37.1z M185.5,42.1c-1.4-1.7-3.2-2.5-5.4-2.5c-3.3,0-5.5,1.5-6.7,4.6c-0.6,1.6-1,3.8-1,6.5
		c0,3.1,0.6,5.5,1.9,7.2s3,2.5,5.1,2.5c3.4,0,5.7-1.5,7.1-4.6c0.8-1.7,1.1-3.7,1.1-6C187.6,46.4,186.9,43.8,185.5,42.1z"/>
	<path class="st1" d="M214.1,47c1.1-0.1,1.8-0.6,2.2-1.4c0.2-0.4,0.3-1,0.3-1.8c0-1.6-0.6-2.8-1.7-3.5c-1.1-0.7-2.8-1.1-4.9-1.1
		c-2.4,0-4.2,0.7-5.2,2c-0.6,0.7-0.9,1.8-1.1,3.3h-4.4c0.1-3.4,1.2-5.8,3.3-7.2c2.1-1.3,4.6-2,7.5-2c3.3,0,5.9,0.6,8,1.9
		c2,1.2,3,3.2,3,5.8v16.1c0,0.5,0.1,0.9,0.3,1.2c0.2,0.3,0.6,0.4,1.3,0.4c0.2,0,0.4,0,0.7,0c0.3,0,0.5-0.1,0.8-0.1V64
		c-0.7,0.2-1.3,0.3-1.7,0.4c-0.4,0.1-0.9,0.1-1.6,0.1c-1.6,0-2.8-0.6-3.5-1.7c-0.4-0.6-0.7-1.5-0.8-2.6c-1,1.2-2.3,2.3-4.1,3.3
		c-1.8,0.9-3.8,1.4-5.9,1.4c-2.6,0-4.7-0.8-6.3-2.4c-1.6-1.6-2.5-3.5-2.5-5.9c0-2.6,0.8-4.6,2.4-6c1.6-1.4,3.7-2.3,6.4-2.6L214.1,47
		z M204.2,59.7c1,0.8,2.2,1.2,3.5,1.2c1.6,0,3.2-0.4,4.8-1.1c2.6-1.3,3.9-3.3,3.9-6.2v-3.8c-0.6,0.4-1.3,0.7-2.2,0.9
		c-0.9,0.2-1.8,0.4-2.7,0.5l-2.8,0.4c-1.7,0.2-3,0.6-3.8,1.1c-1.4,0.8-2.2,2.1-2.2,3.9C202.7,57.8,203.2,58.9,204.2,59.7z"/>
	<path class="st1" d="M231.6,55.1c0.1,1.6,0.5,2.8,1.2,3.6C234,60.2,236,61,239,61c1.8,0,3.3-0.4,4.7-1.1c1.3-0.8,2-1.9,2-3.5
		c0-1.2-0.5-2.1-1.6-2.7c-0.7-0.4-2-0.8-4.1-1.3l-3.8-0.9c-2.4-0.6-4.2-1.2-5.3-2c-2-1.3-3.1-3-3.1-5.3c0-2.6,1-4.8,2.9-6.4
		c1.9-1.6,4.5-2.4,7.8-2.4c4.3,0,7.3,1.2,9.2,3.7c1.2,1.6,1.8,3.2,1.7,5.1H245c-0.1-1.1-0.5-2-1.1-2.9c-1.1-1.2-3-1.8-5.7-1.8
		c-1.8,0-3.2,0.3-4.1,1c-0.9,0.7-1.4,1.6-1.4,2.7c0,1.2,0.6,2.2,1.8,2.9c0.7,0.4,1.8,0.8,3.1,1.1l3.2,0.8c3.4,0.8,5.7,1.6,6.9,2.4
		c1.8,1.2,2.7,3.1,2.7,5.7c0,2.5-1,4.6-2.9,6.4s-4.8,2.7-8.7,2.7c-4.2,0-7.2-0.9-8.9-2.8s-2.7-4.2-2.8-7H231.6z"/>
	<path class="st1" d="M260.1,36v18.5c0,1.4,0.2,2.6,0.7,3.5c0.8,1.7,2.3,2.5,4.5,2.5c3.2,0,5.3-1.5,6.5-4.4c0.6-1.6,0.9-3.7,0.9-6.4
		V36h4.7v27.9H273l0.1-4.1c-0.6,1.1-1.3,2-2.2,2.7c-1.8,1.5-3.9,2.2-6.4,2.2c-3.9,0-6.6-1.3-8-4c-0.8-1.4-1.1-3.3-1.1-5.7V36H260.1z
		"/>
	<path class="st1" d="M287.9,55.1c0.1,1.6,0.5,2.8,1.2,3.6c1.2,1.5,3.3,2.3,6.3,2.3c1.8,0,3.3-0.4,4.7-1.1c1.3-0.8,2-1.9,2-3.5
		c0-1.2-0.5-2.1-1.6-2.7c-0.7-0.4-2-0.8-4.1-1.3l-3.8-0.9c-2.4-0.6-4.2-1.2-5.3-2c-2-1.3-3.1-3-3.1-5.3c0-2.6,1-4.8,2.9-6.4
		c1.9-1.6,4.5-2.4,7.8-2.4c4.3,0,7.3,1.2,9.2,3.7c1.2,1.6,1.8,3.2,1.7,5.1h-4.4c-0.1-1.1-0.5-2-1.1-2.9c-1.1-1.2-3-1.8-5.7-1.8
		c-1.8,0-3.2,0.3-4.1,1c-0.9,0.7-1.4,1.6-1.4,2.7c0,1.2,0.6,2.2,1.8,2.9c0.7,0.4,1.8,0.8,3.1,1.1l3.2,0.8c3.4,0.8,5.7,1.6,6.9,2.4
		c1.8,1.2,2.7,3.1,2.7,5.7c0,2.5-1,4.6-2.9,6.4s-4.8,2.7-8.7,2.7c-4.2,0-7.2-0.9-8.9-2.8s-2.7-4.2-2.8-7H287.9z"/>
</g>
<path class="st1" d="M87.4,54.7L54,88.1c-4.7,4.7-12.3,4.7-17,0L3.6,54.7c-4.7-4.7-4.7-12.3,0-17L37,4.4c4.7-4.7,12.3-4.7,17,0
	l33.4,33.4C92,42.4,92,50.1,87.4,54.7z"/>
<path class="st2" d="M25,54.7v-17c0-6.6,5.4-12,12-12h17c6.6,0,12,5.4,12,12v17c0,6.6-5.4,12-12,12H37C30.4,66.7,25,61.3,25,54.7z"
	/>
<path class="st3" d="M27.3,49.3c0.2-3.3,1.9-6,4.4-8.1c4-3.4,8.8-4.9,13.6-6.6c3.2-1.1,6.6-2,9.7-3.5c3.3-1.5,6.4-3.5,9.4-5.2
	c-0.3,3.2-2.2,5.9-5,8.1c-4.5,3.4-9.8,5-15,6.8C41.3,42,38,43,34.9,44.5C32.2,45.8,29.9,47.7,27.3,49.3z"/>
<path class="st4" d="M26.8,56.8c0.3-4,2.5-7.1,6.1-8.8c4.9-2.2,10.1-3.9,15.3-5.6c4.4-1.5,8.9-2.8,12.5-6.5c-0.3,4-2.2,6.8-5.2,8.4
	c-4,2-8.3,3.5-12.5,5.1c-3.1,1.2-6.3,1.9-9.3,3.2C31.2,53.7,29,55.4,26.8,56.8z"/>
<path class="st5" d="M26.7,63c0.3-3.4,2.4-6.1,5.8-7.4c4-1.5,8.2-2.6,12.3-3.7c4-1.1,7.9-2,11.1-4.9c0.2,2-0.4,4.1-2.4,5.5
	c-2.5,1.6-5.2,3-8,4c-3.5,1.2-7.2,1.8-10.8,3C31.9,60.3,29.3,61.8,26.7,63z"/>
<path class="st6" d="M26.4,68.9c0.3-3.2,2.3-5.2,5.2-6.2c2.6-0.9,5.4-1.3,8.1-2c3.4-0.9,6.8-1.8,10.1-2.6c0,1.7-1.2,3.7-3.8,4.7
	c-2.3,0.9-4.8,1.5-7.2,2.1c-2.6,0.6-5.2,1-7.7,1.8C29.4,67.2,28,68.1,26.4,68.9z"/>
</svg>
